<?xml version="1.0" encoding="utf-8"?>
<!-- Generator: Adobe Illustrator 23.0.2, SVG Export Plug-In . SVG Version: 6.00 Build 0)  -->
<svg version="1.1" id="Capa_1" xmlns="http://www.w3.org/2000/svg" xmlns:xlink="http://www.w3.org/1999/xlink" x="0px" y="0px"
	 viewBox="0 0 1200 1200" enable-background="new 0 0 1200 1200" xml:space="preserve">
<g>
	<g>
		<g>
			<g>
				<path fill="#DF95EF" d="M405.582,823.695c-55.03,55.03-110.059,110.059-165.089,165.089
					c-15.829,15.829,8.729,40.402,24.566,24.565c55.03-55.03,110.059-110.059,165.089-165.089
					C445.977,832.431,421.419,807.858,405.582,823.695L405.582,823.695z"/>
			</g>
			<g>
				<path fill="#DF95EF" d="M252.777,1018.436c240.129,0,480.258,0,720.387,0c22.354,0,22.391-34.741,0-34.741
					c-240.129,0-480.258,0-720.387,0C230.422,983.696,230.385,1018.436,252.777,1018.436L252.777,1018.436z"/>
			</g>
			<path fill="#FF5C70" d="M205.713,292.56l196.065,559.05h560.105L1150,292.56H205.713z M1078.038,408.387
				c-3.533,0-7.065,0-10.598,0c-58.394,0-116.789,0-175.184,0c0-28.186,0-56.373,0-84.559h214.236L1078.038,408.387z
				 M998.511,644.729c-1.937-0.766-4.136-1.216-6.629-1.216c-33.208,0-66.416,0-99.625,0c0-66.795,0-133.59,0-200.385
				c58.031,0,116.061,0,174.092,0L998.511,644.729z M361.948,643.566l-70.297-200.439c55.378,0,110.756,0,166.133,0
				c0,66.795,0,133.59,0,200.385c-31.583,0-63.166,0-94.749,0C362.661,643.513,362.309,643.547,361.948,643.566z M492.525,443.127
				c51.792,0,103.584,0,155.376,0c0,66.795,0,133.59,0,200.385c-51.792,0-103.584,0-155.376,0
				C492.525,576.718,492.525,509.922,492.525,443.127z M647.901,408.387c-51.792,0-103.584,0-155.376,0c0-28.186,0-56.373,0-84.559
				h155.376C647.901,352.014,647.901,380.2,647.901,408.387z M682.641,323.827h174.874c0,28.186,0,56.373,0,84.559
				c-58.292,0-116.583,0-174.874,0C682.641,380.2,682.641,352.014,682.641,323.827z M647.901,678.254c0,47.363,0,94.727,0,142.09
				H492.525c0-47.363,0-94.727,0-142.09C544.317,678.254,596.109,678.254,647.901,678.254z M682.641,678.254
				c58.292,0,116.583,0,174.874,0c0,47.363,0,94.727,0,142.09H682.641C682.641,772.98,682.641,725.617,682.641,678.254z
				 M682.641,643.513c0-66.795,0-133.59,0-200.385c58.292,0,116.583,0,174.874,0c0,66.795,0,133.59,0,200.385
				C799.224,643.513,740.933,643.513,682.641,643.513z M457.784,323.827c0,28.186,0,56.373,0,84.559c-59.439,0-118.878,0-178.317,0
				l-29.656-84.559H457.784z M374.113,678.254c27.89,0,55.781,0,83.671,0c0,47.363,0,94.727,0,142.09h-33.838L374.113,678.254z
				 M939.417,820.344h-47.161c0-47.363,0-94.727,0-142.09c31.658,0,63.316,0,94.973,0L939.417,820.344z"/>
			
				<rect x="184.407" y="139.77" transform="matrix(0.9328 -0.3604 0.3604 0.9328 -70.8909 89.4499)" fill="#FF5C70" width="40.021" height="190.102"/>
			
				<rect x="100.157" y="115.676" transform="matrix(-0.3299 -0.944 0.944 -0.3299 -6.2664 375.9734)" fill="#B162C4" width="60.303" height="149.069"/>
			<circle fill="#A72BBC" cx="494.156" cy="1020.729" r="83.795"/>
			<circle fill="#A72BBC" cx="842.26" cy="1020.729" r="83.795"/>
		</g>
		<path opacity="0.15" d="M666.024,1018.436v-34.741h-96.698c-13.672-27.7-42.19-46.761-75.17-46.761
			c-32.98,0-61.497,19.061-75.17,46.761H294.713c44.028-44.028,88.057-88.057,132.086-132.085h239.226v-559.05H248.178
			l-37.989-98.325l0.428-0.15l-19.894-56.927L50.001,186.336l19.893,56.927l102.495-35.817l37.657,97.468l185.473,528.845
			c-51.38,51.38-102.761,102.761-154.141,154.141c-0.093,0.087-0.179,0.181-0.27,0.27c-0.204,0.204-0.409,0.408-0.612,0.612
			c-5.945,5.945-6.192,13.122-3.346,18.93c2.11,5.853,7.151,10.504,15.12,10.699c0.062,0.005,0.124,0.005,0.186,0.009
			c0.109,0.002,0.211,0.016,0.322,0.016h0.354c0.34,0.008,0.68,0.015,1.021,0h156.268c-0.02,0.764-0.058,1.524-0.058,2.293
			c0,46.279,37.516,83.795,83.795,83.795s83.795-37.516,83.795-83.795c0-0.769-0.037-1.529-0.059-2.293H666.024z M492.525,323.827
			h155.376v84.559H492.525V323.827z M492.525,443.128h155.376v200.385H492.525V443.128z M492.525,678.254h155.376v142.09H492.525
			V678.254z M249.811,323.827h207.974v84.559H279.468L249.811,323.827z M361.948,643.566l-70.298-200.439h166.134v200.385h-94.749
			C362.661,643.513,362.31,643.547,361.948,643.566z M374.113,678.254h83.672v142.09h-33.279c-0.216-0.106-0.441-0.192-0.661-0.289
			L374.113,678.254z"/>
	</g>
	<polygon fill="#FFFFFF" points="403.963,188.914 353.545,188.914 353.545,134.829 340.711,134.829 340.711,188.914 
		290.293,188.914 290.293,201.748 340.711,201.748 340.711,255.833 353.545,255.833 353.545,201.748 403.963,201.748 	"/>
	<polygon fill="#FFFFFF" points="453.382,261.78 423.255,261.78 423.255,229.462 415.586,229.462 415.586,261.78 385.459,261.78 
		385.459,269.449 415.586,269.449 415.586,301.767 423.255,301.767 423.255,269.449 453.382,269.449 	"/>
	<polygon fill="#FFFFFF" points="487.039,120.6 463.618,120.6 463.618,95.476 457.656,95.476 457.656,120.6 434.235,120.6 
		434.235,126.562 457.656,126.562 457.656,151.686 463.618,151.686 463.618,126.562 487.039,126.562 	"/>
</g>
</svg>
