<?xml version="1.0" encoding="utf-8"?>
<!-- Designed by Vexels.com - 2020 All Rights Reserved - https://vexels.com/terms-and-conditions/  -->
<svg version="1.1" id="Capa_1" xmlns="http://www.w3.org/2000/svg" xmlns:xlink="http://www.w3.org/1999/xlink" x="0px" y="0px"
	 viewBox="0 0 1200 1200" enable-background="new 0 0 1200 1200" xml:space="preserve">
<g>
	<path fill="#FFFFFF" d="M872.156,1050.176l208.417,36.532L1044.555,881.2c-0.561-3.226,0.061-6.55,1.774-9.347
		c125.942-206.556,94.314-470.407-76.919-641.643C870.645,131.441,739.322,77.05,599.648,77.05
		c-139.683,0-271.007,54.391-369.772,153.161c-203.887,203.887-203.887,535.643,0,739.535
		c167.931,167.926,428.303,201.657,633.156,82.068C865.781,1050.211,869.013,1049.618,872.156,1050.176z M467.727,912.223
		c-31.84,0-57.742-25.903-57.742-57.746c0-31.84,25.902-57.742,57.742-57.742s57.742,25.902,57.742,57.742
		C525.469,886.32,499.567,912.223,467.727,912.223z M776.393,912.223c-31.838,0-57.742-25.903-57.742-57.746
		c0-31.84,25.904-57.742,57.742-57.742c31.84,0,57.743,25.902,57.743,57.742C834.136,886.32,808.233,912.223,776.393,912.223z
		 M827.47,745.373H424.895c-6.743,0-12.442-4.974-13.364-11.652l-49.786-362.378h-85.312c-7.446,0-13.488-6.037-13.488-13.487
		c0-7.451,6.041-13.487,13.488-13.487h97.07c6.734,0,12.442,4.974,13.364,11.652l7.42,54.018h481.723
		c4.188,0,8.148,1.95,10.704,5.278c2.545,3.323,3.407,7.647,2.327,11.7l-48.539,181.268c-1.477,5.514-6.27,9.5-11.96,9.953
		l-401.267,31.909l9.377,68.252H827.47c7.447,0,13.488,6.037,13.488,13.487C840.958,739.336,834.918,745.373,827.47,745.373z"/>
	<polygon fill="#94F7F2" points="816.908,592.106 858.441,437.013 397.993,437.013 423.598,623.383 	"/>
	<path fill="#94F7F2" d="M467.727,823.71c-16.964,0-30.767,13.802-30.767,30.767c0,16.968,13.802,30.772,30.767,30.772
		c16.964,0,30.767-13.804,30.767-30.772C498.494,837.512,484.692,823.71,467.727,823.71z"/>
	<path fill="#94F7F2" d="M776.393,823.71c-16.963,0-30.766,13.802-30.766,30.767c0,16.968,13.802,30.772,30.766,30.772
		c16.965,0,30.768-13.804,30.768-30.772C807.161,837.512,793.359,823.71,776.393,823.71z"/>
	<path fill="#565656" d="M827.47,718.398H436.652l-9.377-68.252l401.267-31.909c5.69-0.453,10.484-4.439,11.96-9.953l48.539-181.268
		c1.08-4.053,0.218-8.377-2.327-11.7c-2.556-3.328-6.516-5.278-10.704-5.278H394.287l-7.42-54.018
		c-0.922-6.678-6.63-11.652-13.364-11.652h-97.07c-7.446,0-13.488,6.037-13.488,13.487c0,7.45,6.041,13.487,13.488,13.487h85.312
		l49.786,362.378c0.922,6.678,6.621,11.652,13.364,11.652H827.47c7.447,0,13.488-6.037,13.488-13.487
		C840.958,724.435,834.918,718.398,827.47,718.398z M858.441,437.013l-41.533,155.093l-393.309,31.277l-25.605-186.37H858.441z"/>
	<path fill="#565656" d="M467.727,796.735c-31.84,0-57.742,25.902-57.742,57.742c0,31.843,25.902,57.746,57.742,57.746
		s57.742-25.903,57.742-57.746C525.469,822.637,499.567,796.735,467.727,796.735z M467.727,885.249
		c-16.964,0-30.767-13.804-30.767-30.772c0-16.965,13.802-30.767,30.767-30.767c16.964,0,30.767,13.802,30.767,30.767
		C498.494,871.445,484.692,885.249,467.727,885.249z"/>
	<path fill="#565656" d="M776.393,796.735c-31.838,0-57.742,25.902-57.742,57.742c0,31.843,25.904,57.746,57.742,57.746
		c31.84,0,57.743-25.903,57.743-57.746C834.136,822.637,808.233,796.735,776.393,796.735z M776.393,885.249
		c-16.963,0-30.766-13.804-30.766-30.772c0-16.965,13.802-30.767,30.766-30.767c16.965,0,30.768,13.802,30.768,30.767
		C807.161,871.445,793.359,885.249,776.393,885.249z"/>
	<path fill="#565656" d="M1071.995,881.521c129.349-216.558,95.341-491.524-83.513-670.381
		C884.624,107.273,746.531,50.075,599.648,50.075c-146.893,0-284.986,57.197-388.843,161.064
		c-214.407,214.402-214.407,563.27,0,777.676c105.956,105.957,246.904,161.113,389.256,161.109
		c93.304,0,187.23-23.708,272.271-72.331l222.52,39.004c4.311,0.764,8.763-0.642,11.863-3.75c3.109-3.109,4.505-7.534,3.749-11.863
		L1071.995,881.521z M229.876,969.745c-203.887-203.892-203.887-535.647,0-739.535C328.641,131.441,459.965,77.05,599.648,77.05
		c139.674,0,270.997,54.391,369.762,153.161c171.233,171.236,202.861,435.087,76.919,641.643c-1.712,2.797-2.334,6.12-1.774,9.347
		l36.018,205.507l-208.417-36.532c-3.143-0.558-6.375,0.035-9.123,1.638C658.179,1171.402,397.807,1137.671,229.876,969.745z"/>
</g>
</svg>
