<?xml version="1.0" encoding="iso-8859-1"?>
<!-- Generator: Adobe Illustrator 19.0.0, SVG Export Plug-In . SVG Version: 6.00 Build 0)  -->
<svg version="1.1" id="Capa_1" xmlns="http://www.w3.org/2000/svg" xmlns:xlink="http://www.w3.org/1999/xlink" x="0px" y="0px"
	 viewBox="0 0 512 512" style="enable-background:new 0 0 512 512;" xml:space="preserve">
<circle style="fill:#57A4FF;" cx="256" cy="256" r="256"/>
<path style="fill:#2488FF;" d="M512,256c0-16.118-1.506-31.882-4.354-47.174l-33.803-33.803l0.109-0.168l-18.664-12.134
	l-3.486,5.362l-55.125-55.127c-0.439-0.445-0.883-0.885-1.325-1.326c-0.289-0.288-0.575-0.58-0.867-0.866l-5.238-5.238l-0.486-0.14
	c-0.482-0.434-0.968-0.863-1.456-1.291c-0.386-0.341-0.772-0.681-1.162-1.018c-0.538-0.465-1.08-0.926-1.623-1.386
	c-0.39-0.329-0.779-0.659-1.171-0.985c-0.552-0.459-1.109-0.913-1.666-1.366c-0.391-0.317-0.781-0.633-1.174-0.947
	c-0.568-0.453-1.14-0.902-1.713-1.348c-0.392-0.305-0.782-0.609-1.176-0.91c-0.583-0.446-1.171-0.889-1.76-1.329
	c-0.392-0.293-0.785-0.585-1.179-0.875c-0.598-0.439-1.198-0.873-1.801-1.304c-0.395-0.283-0.79-0.564-1.188-0.845
	c-0.612-0.431-1.228-0.857-1.845-1.281c-0.394-0.27-0.789-0.541-1.186-0.808c-0.627-0.423-1.258-0.843-1.89-1.258
	c-0.395-0.259-0.791-0.519-1.189-0.776c-0.643-0.416-1.29-0.827-1.939-1.235c-0.394-0.248-0.789-0.494-1.185-0.74
	c-0.657-0.406-1.318-0.809-1.98-1.208c-0.396-0.238-0.792-0.475-1.191-0.711c-0.672-0.397-1.348-0.791-2.026-1.182
	c-0.394-0.226-0.788-0.451-1.183-0.675c-0.691-0.391-1.385-0.777-2.08-1.16c-0.39-0.214-0.779-0.426-1.17-0.637
	c-0.708-0.382-1.418-0.76-2.131-1.134c-0.388-0.204-0.779-0.406-1.17-0.608c-0.721-0.372-1.446-0.74-2.173-1.103
	c-0.388-0.194-0.777-0.385-1.166-0.577c-0.738-0.362-1.478-0.721-2.223-1.074c-0.384-0.183-0.769-0.363-1.155-0.543
	c-0.756-0.353-1.514-0.702-2.275-1.046c-0.381-0.171-0.764-0.342-1.145-0.512c-0.77-0.342-1.544-0.68-2.32-1.013
	c-0.381-0.163-0.762-0.324-1.144-0.484c-0.786-0.331-1.574-0.658-2.365-0.979c-0.375-0.152-0.752-0.302-1.129-0.452
	c-0.806-0.322-1.614-0.639-2.425-0.951c-0.366-0.14-0.735-0.278-1.103-0.417c-0.825-0.311-1.652-0.619-2.483-0.919
	c-0.364-0.131-0.729-0.26-1.094-0.391c-0.84-0.298-1.683-0.594-2.53-0.882c-0.358-0.121-0.718-0.24-1.076-0.361
	c-0.86-0.287-1.722-0.571-2.588-0.848c-0.351-0.112-0.705-0.221-1.056-0.332c-0.878-0.275-1.758-0.547-2.641-0.81
	c-0.346-0.104-0.693-0.204-1.041-0.305c-0.895-0.262-1.792-0.521-2.694-0.771c-0.338-0.095-0.679-0.185-1.018-0.277
	c-0.917-0.25-1.835-0.496-2.759-0.735c-0.323-0.083-0.649-0.164-0.973-0.246c-0.942-0.238-1.884-0.472-2.832-0.698
	c-0.315-0.075-0.632-0.147-0.947-0.22c-0.962-0.225-1.926-0.445-2.894-0.657c-0.303-0.066-0.607-0.129-0.909-0.194
	c-0.984-0.21-1.97-0.417-2.961-0.614c-0.294-0.059-0.589-0.114-0.883-0.17c-1.004-0.196-2.01-0.387-3.02-0.569
	c-0.282-0.05-0.564-0.098-0.846-0.147c-1.028-0.181-2.059-0.358-3.093-0.524c-0.264-0.042-0.528-0.081-0.791-0.122
	c-1.056-0.166-2.114-0.328-3.177-0.48c-0.245-0.035-0.492-0.067-0.738-0.1c-1.084-0.15-2.169-0.296-3.259-0.432
	c-0.227-0.028-0.455-0.053-0.683-0.08c-1.113-0.135-2.228-0.264-3.348-0.382c-0.2-0.021-0.401-0.039-0.601-0.06
	c-1.149-0.118-2.3-0.23-3.455-0.331c-0.174-0.016-0.35-0.028-0.524-0.042c-1.184-0.1-2.372-0.195-3.564-0.277
	c-0.139-0.01-0.279-0.017-0.42-0.027c-1.228-0.082-2.458-0.158-3.692-0.22c-0.107-0.006-0.214-0.009-0.321-0.014
	c-1.271-0.063-2.544-0.118-3.823-0.16c-0.055-0.002-0.109-0.002-0.164-0.004c-2.552-0.083-5.117-0.13-7.698-0.13
	c-47.144,0-90.544,14.885-125.508,43.046c-34.567,27.841-57.793,66.045-67.169,110.483l-2.297,10.891l0.298,0.063l213.611,213.611
	c-3.813,0.225-7.662,0.342-11.547,0.342c-4.519,0-8.986-0.151-13.4-0.434l-115.94-115.934l0.083-0.128l-55.988-36.403L38.047,337.21
	l0.017,0.011l-0.156,0.13l170.148,170.148C223.589,510.442,239.612,512,256,512C397.385,512,512,397.385,512,256z"/>
<g>
	<path style="fill:#003F8A;" d="M81.41,213.776c17.145-81.263,85.822-135.863,170.896-135.863
		c80.136,0,144.546,45.078,166.639,114.251l-25.251-16.417l-12.134,18.662l55.988,36.403l36.404-55.988l-18.664-12.134
		l-15.004,23.076c-24.851-78.757-97.563-130.113-187.98-130.113c-47.144,0-90.544,14.885-125.508,43.046
		c-34.567,27.841-57.793,66.045-67.169,110.483l-2.297,10.891l21.781,4.596L81.41,213.776z"/>
	<path style="fill:#003F8A;" d="M430.59,298.224c-17.145,81.263-85.822,135.863-170.896,135.863
		c-80.136,0-144.547-45.078-166.639-114.251l25.251,16.417l12.134-18.662l-55.988-36.402l-36.404,55.988l18.664,12.134
		l15.004-23.076c24.851,78.756,97.563,130.111,187.98,130.111c47.144,0,90.544-14.885,125.509-43.046
		c34.567-27.841,57.793-66.045,67.168-110.483l2.297-10.891l-21.781-4.596L430.59,298.224z"/>
</g>
<g>
	<path style="fill:#003068;" d="M455.289,162.688l-15.004,23.076C415.774,108.084,344.7,57.065,256,55.684v22.261
		c78.416,1.363,141.193,46.112,162.945,114.217l-25.251-16.417l-12.134,18.662l55.988,36.403l36.404-55.988L455.289,162.688z"/>
	<path style="fill:#003068;" d="M432.887,287.333l-2.297,10.891c-17.145,81.263-85.822,135.863-170.896,135.863
		c-1.235,0-2.467-0.011-3.694-0.032v22.261c1.229,0.019,2.459,0.032,3.694,0.032c47.144,0,90.544-14.885,125.509-43.046
		c34.567-27.841,57.793-66.045,67.168-110.483l2.297-10.891L432.887,287.333z"/>
</g>
<circle style="fill:#005ECE;" cx="256" cy="256" r="122.157"/>
<path style="fill:#003F8A;" d="M256,133.843v244.313c67.465,0,122.157-54.692,122.157-122.157S323.465,133.843,256,133.843z"/>
<path style="fill:#FFFFFF;" d="M256,133.843c-67.357,0-122.157,54.8-122.157,122.157S188.643,378.156,256,378.156
	S378.156,323.357,378.156,256S323.357,133.843,256,133.843z M322.107,181.032c-1.937-3.652-4.021-7.151-6.206-10.431
	c-2.636-3.955-5.441-7.633-8.396-11.011c8.416,4.502,16.187,10.089,23.231,16.707C327.985,177.97,325.099,179.555,322.107,181.032z
	 M326.627,250.007H262.42v-41.718c18.664-0.676,37.011-4.296,53.372-10.529C322.245,213.49,325.971,231.448,326.627,250.007z
	 M262.42,195.439v-48.303c18.574,2.621,35.794,16.632,47.876,38.985C295.633,191.587,279.195,194.787,262.42,195.439z
	 M365.093,262.849c-1.454,23.176-10.386,45.497-25.358,63.341c-3.824-2.451-7.9-4.74-12.164-6.836
	c7.038-17.011,11.122-36.44,11.876-56.505L365.093,262.849L365.093,262.849z M262.42,303.711v-40.862h64.174
	c-0.741,18.255-4.453,35.918-10.801,51.393C299.433,308.008,281.085,304.387,262.42,303.711z M315.901,341.4
	c2.18-3.271,4.263-6.771,6.206-10.431c2.993,1.479,5.879,3.063,8.627,4.735c-7.044,6.618-14.816,12.206-23.231,16.708
	C310.459,349.033,313.264,345.355,315.901,341.4z M262.42,364.863v-48.303c16.775,0.652,33.213,3.852,47.876,9.318
	C298.217,348.231,280.994,362.242,262.42,364.863z M365.146,250.007h-25.669c-0.668-20.368-4.764-40.093-11.907-57.361
	c4.261-2.093,8.337-4.384,12.164-6.836C354.905,203.89,363.859,226.512,365.146,250.007z M172.556,262.849
	c0.752,20.063,4.835,39.491,11.874,56.504c-4.261,2.093-8.337,4.384-12.166,6.836c-14.97-17.843-23.904-40.163-25.357-63.34H172.556
	z M189.892,330.967c1.939,3.652,4.021,7.152,6.207,10.431c2.638,3.956,5.443,7.634,8.397,11.011
	c-8.417-4.502-16.189-10.09-23.234-16.709C184.011,334.03,186.898,332.445,189.892,330.967z M185.407,262.849h64.171v40.862
	c-18.664,0.676-37.011,4.295-53.372,10.528C189.859,298.763,186.146,281.104,185.407,262.849z M249.579,316.561v48.303
	c-18.576-2.622-35.797-16.632-47.876-38.987C216.366,320.412,232.804,317.212,249.579,316.561z M184.43,192.647
	c-7.145,17.267-11.24,36.992-11.907,57.361h-25.67c1.288-23.495,10.241-46.118,25.413-64.197
	C176.092,188.262,180.168,190.554,184.43,192.647z M249.579,208.289v41.718h-64.207c0.658-18.56,4.381-36.518,10.834-52.248
	C212.569,203.994,230.916,207.614,249.579,208.289z M196.099,170.601c-2.185,3.278-4.267,6.777-6.206,10.431
	c-2.991-1.477-5.878-3.062-8.628-4.735c7.044-6.618,14.818-12.206,23.233-16.708C201.541,162.967,198.736,166.645,196.099,170.601z
	 M249.579,147.137v48.303c-16.776-0.652-33.214-3.852-47.876-9.317C213.783,163.769,231.004,149.758,249.579,147.137z"/>
<g>
</g>
<g>
</g>
<g>
</g>
<g>
</g>
<g>
</g>
<g>
</g>
<g>
</g>
<g>
</g>
<g>
</g>
<g>
</g>
<g>
</g>
<g>
</g>
<g>
</g>
<g>
</g>
<g>
</g>
</svg>
